HIERARCHY
ROOT Hips
{
	OFFSET 0.000000 97.167313 0.000000
	CHANNELS 6 Xposition Yposition Zposition Xrotation Yrotation Zrotation
	JOINT Spine
	{
		OFFSET 0.000000 13.784798 0.064400
		CHANNELS 3 Xrotation Yrotation Zrotation
		JOINT Spine1
		{
			OFFSET 0.000000 12.037903 0.404700
			CHANNELS 3 Xrotation Yrotation Zrotation
			JOINT Spine2
			{
				OFFSET 0.000000 17.795601 0.420200
				CHANNELS 3 Xrotation Yrotation Zrotation
				JOINT Neck
				{
					OFFSET 0.000000 39.131302 11.954600
					CHANNELS 3 Xrotation Yrotation Zrotation
					JOINT Head
					{
						OFFSET 0.000000 14.456192 15.627699
						CHANNELS 3 Xrotation Yrotation Zrotation
						JOINT HeadTop_End
						{
							OFFSET 0.000000 15.703506 7.603401
							CHANNELS 3 Xrotation Yrotation Zrotation
							End Site
							{
								OFFSET 0.000000 17.447403 0.000000
							}
						}
					}
				}
				JOINT LeftShoulder
				{
					OFFSET 17.399500 24.608795 1.168800
					CHANNELS 3 Xrotation Yrotation Zrotation
					JOINT LeftArm
					{
						OFFSET 18.980635 5.765305 1.818600
						CHANNELS 3 Xrotation Yrotation Zrotation
						JOINT LeftForeArm
						{
							OFFSET 49.290169 0.000000 0.000000
							CHANNELS 3 Xrotation Yrotation Zrotation
							JOINT LeftHand
							{
								OFFSET 31.562012 0.000000 0.000000
								CHANNELS 3 Xrotation Yrotation Zrotation
								JOINT LeftHandThumb1
								{
									OFFSET 6.133995 -4.388519 7.076070
									CHANNELS 3 Xrotation Yrotation Zrotation
									JOINT LeftHandThumb2
									{
										OFFSET 6.037666 -3.485840 3.485847
										CHANNELS 3 Xrotation Yrotation Zrotation
										JOINT LeftHandThumb3
										{
											OFFSET 6.496506 -3.750763 3.750761
											CHANNELS 3 Xrotation Yrotation Zrotation
											JOINT LeftHandThumb4
											{
												OFFSET 5.616882 -3.242905 3.242910
												CHANNELS 3 Xrotation Yrotation Zrotation
												End Site
												{
													OFFSET -1.254608 7.132141 0.375429
												}
											}
										}
									}
								}
								JOINT LeftHandPinky1
								{
									OFFSET 18.920792 -0.453171 -11.426712
									CHANNELS 3 Xrotation Yrotation Zrotation
									JOINT LeftHandPinky2
									{
										OFFSET 4.919586 0.000000 0.000000
										CHANNELS 3 Xrotation Yrotation Zrotation
										JOINT LeftHandPinky3
										{
											OFFSET 5.233047 0.000000 0.000000
											CHANNELS 3 Xrotation Yrotation Zrotation
											JOINT LeftHandPinky4
											{
												OFFSET 5.571716 0.000000 0.000000
												CHANNELS 3 Xrotation Yrotation Zrotation
												End Site
												{
													OFFSET -3.459808 4.342407 -0.466164
												}
											}
										}
									}
								}
								JOINT LeftHandRing1
								{
									OFFSET 22.726120 -0.094986 -6.500475
									CHANNELS 3 Xrotation Yrotation Zrotation
									JOINT LeftHandRing2
									{
										OFFSET 6.408615 0.000000 0.000000
										CHANNELS 3 Xrotation Yrotation Zrotation
										JOINT LeftHandRing3
										{
											OFFSET 6.150223 0.000000 0.000000
											CHANNELS 3 Xrotation Yrotation Zrotation
											JOINT LeftHandRing4
											{
												OFFSET 6.145386 0.000000 0.000000
												CHANNELS 3 Xrotation Yrotation Zrotation
												End Site
												{
													OFFSET -3.671402 4.923981 -0.202372
												}
											}
										}
									}
								}
								JOINT LeftHandMiddle1
								{
									OFFSET 23.373947 0.000000 0.000001
									CHANNELS 3 Xrotation Yrotation Zrotation
									JOINT LeftHandMiddle2
									{
										OFFSET 6.996567 0.000000 0.000000
										CHANNELS 3 Xrotation Yrotation Zrotation
										JOINT LeftHandMiddle3
										{
											OFFSET 7.015945 0.000000 0.000000
											CHANNELS 3 Xrotation Yrotation Zrotation
											JOINT LeftHandMiddle4
											{
												OFFSET 7.721573 0.000000 0.000000
												CHANNELS 3 Xrotation Yrotation Zrotation
												End Site
												{
													OFFSET -4.651108 6.158463 0.251582
												}
											}
										}
									}
								}
								JOINT LeftHandIndex1
								{
									OFFSET 21.310577 -0.490082 6.209344
									CHANNELS 3 Xrotation Yrotation Zrotation
									JOINT LeftHandIndex2
									{
										OFFSET 7.536453 0.000000 0.000000
										CHANNELS 3 Xrotation Yrotation Zrotation
										JOINT LeftHandIndex3
										{
											OFFSET 7.512344 0.000000 0.000000
											CHANNELS 3 Xrotation Yrotation Zrotation
											JOINT LeftHandIndex4
											{
												OFFSET 10.212402 0.000000 0.000001
												CHANNELS 3 Xrotation Yrotation Zrotation
												End Site
												{
													OFFSET -5.180801 8.690506 1.388433
												}
											}
										}
									}
								}
							}
						}
					}
				}
				JOINT RightShoulder
				{
					OFFSET -17.399500 24.608795 1.168800
					CHANNELS 3 Xrotation Yrotation Zrotation
					JOINT RightArm
					{
						OFFSET -18.980635 5.765305 1.818600
						CHANNELS 3 Xrotation Yrotation Zrotation
						JOINT RightForeArm
						{
							OFFSET -49.290169 0.000000 0.000000
							CHANNELS 3 Xrotation Yrotation Zrotation
							JOINT RightHand
							{
								OFFSET -31.562012 0.000000 0.000000
								CHANNELS 3 Xrotation Yrotation Zrotation
								JOINT RightHandThumb1
								{
									OFFSET -6.133995 -4.388519 7.076070
									CHANNELS 3 Xrotation Yrotation Zrotation
									JOINT RightHandThumb2
									{
										OFFSET -6.037666 -3.485840 3.485847
										CHANNELS 3 Xrotation Yrotation Zrotation
										JOINT RightHandThumb3
										{
											OFFSET -6.496506 -3.750763 3.750761
											CHANNELS 3 Xrotation Yrotation Zrotation
											JOINT RightHandThumb4
											{
												OFFSET -5.616882 -3.242905 3.242910
												CHANNELS 3 Xrotation Yrotation Zrotation
												End Site
												{
													OFFSET 1.254608 7.132141 0.375429
												}
											}
										}
									}
								}
								JOINT RightHandIndex1
								{
									OFFSET -21.310577 -0.490082 6.209344
									CHANNELS 3 Xrotation Yrotation Zrotation
									JOINT RightHandIndex2
									{
										OFFSET -7.536453 0.000000 0.000000
										CHANNELS 3 Xrotation Yrotation Zrotation
										JOINT RightHandIndex3
										{
											OFFSET -7.512344 0.000000 0.000000
											CHANNELS 3 Xrotation Yrotation Zrotation
											JOINT RightHandIndex4
											{
												OFFSET -10.212402 0.000000 0.000001
												CHANNELS 3 Xrotation Yrotation Zrotation
												End Site
												{
													OFFSET 5.180801 8.690506 1.388433
												}
											}
										}
									}
								}
								JOINT RightHandMiddle1
								{
									OFFSET -23.373947 0.000000 0.000001
									CHANNELS 3 Xrotation Yrotation Zrotation
									JOINT RightHandMiddle2
									{
										OFFSET -6.996567 0.000000 0.000000
										CHANNELS 3 Xrotation Yrotation Zrotation
										JOINT RightHandMiddle3
										{
											OFFSET -7.015945 0.000000 0.000000
											CHANNELS 3 Xrotation Yrotation Zrotation
											JOINT RightHandMiddle4
											{
												OFFSET -7.721573 0.000000 0.000000
												CHANNELS 3 Xrotation Yrotation Zrotation
												End Site
												{
													OFFSET 4.651108 6.158463 0.251582
												}
											}
										}
									}
								}
								JOINT RightHandRing1
								{
									OFFSET -22.726120 -0.094986 -6.500475
									CHANNELS 3 Xrotation Yrotation Zrotation
									JOINT RightHandRing2
									{
										OFFSET -6.408615 0.000000 0.000000
										CHANNELS 3 Xrotation Yrotation Zrotation
										JOINT RightHandRing3
										{
											OFFSET -6.150223 0.000000 0.000000
											CHANNELS 3 Xrotation Yrotation Zrotation
											JOINT RightHandRing4
											{
												OFFSET -6.145386 0.000000 0.000000
												CHANNELS 3 Xrotation Yrotation Zrotation
												End Site
												{
													OFFSET 3.671402 4.923981 -0.202372
												}
											}
										}
									}
								}
								JOINT RightHandPinky1
								{
									OFFSET -18.920792 -0.453171 -11.426712
									CHANNELS 3 Xrotation Yrotation Zrotation
									JOINT RightHandPinky2
									{
										OFFSET -4.919586 0.000000 0.000000
										CHANNELS 3 Xrotation Yrotation Zrotation
										JOINT RightHandPinky3
										{
											OFFSET -5.233047 0.000000 0.000000
											CHANNELS 3 Xrotation Yrotation Zrotation
											JOINT RightHandPinky4
											{
												OFFSET -5.571716 0.000000 0.000000
												CHANNELS 3 Xrotation Yrotation Zrotation
												End Site
												{
													OFFSET 3.459808 4.342407 -0.466164
												}
											}
										}
									}
								}
							}
						}
					}
				}
			}
		}
	}
	JOINT LeftUpLeg
	{
		OFFSET 19.899099 -7.885101 -3.429500
		CHANNELS 3 Xrotation Yrotation Zrotation
		JOINT LeftLeg
		{
			OFFSET 1.745560 -36.997807 10.304700
			CHANNELS 3 Xrotation Yrotation Zrotation
			JOINT LeftFoot
			{
				OFFSET -1.745558 -29.803308 -13.615400
				CHANNELS 3 Xrotation Yrotation Zrotation
				JOINT LeftToeBase
				{
					OFFSET 1.181900 -18.539904 15.226099
					CHANNELS 3 Xrotation Yrotation Zrotation
					JOINT LeftToe_End
					{
						OFFSET -0.863701 1.402801 16.534700
						CHANNELS 3 Xrotation Yrotation Zrotation
						End Site
						{
							OFFSET 0.000000 16.616566 0.000000
						}
					}
				}
			}
		}
	}
	JOINT RightUpLeg
	{
		OFFSET -19.899099 -7.885101 -3.429500
		CHANNELS 3 Xrotation Yrotation Zrotation
		JOINT RightLeg
		{
			OFFSET -1.745560 -36.997807 10.304700
			CHANNELS 3 Xrotation Yrotation Zrotation
			JOINT RightFoot
			{
				OFFSET 1.745558 -29.803308 -13.615400
				CHANNELS 3 Xrotation Yrotation Zrotation
				JOINT RightToeBase
				{
					OFFSET -1.181900 -18.539904 15.226099
					CHANNELS 3 Xrotation Yrotation Zrotation
					JOINT RightToe_End
					{
						OFFSET 0.863701 1.402801 16.534700
						CHANNELS 3 Xrotation Yrotation Zrotation
						End Site
						{
							OFFSET 0.000000 16.616566 0.000000
						}
					}
				}
			}
		}
	}
}
MOTION
Frames: 6
Frame Time: 0.033333
3.910364 51.756264 -114.600716 39.682737 -55.902670 26.672148 19.918710 2.728595 -8.073498 7.721923 0.475263 1.551471 7.348561 0.412981 0.364962 -17.720297 27.857236 -13.935749 -29.129353 21.341542 6.286535 -0.000001 -0.000000 -0.000001 9.078322 -9.143413 -8.016002 -74.725609 -0.681166 -26.014497 43.670693 -34.782605 36.910520 -2.712276 0.831528 6.981267 40.109985 -15.297107 -0.359990 5.639662 28.097556 11.338841 1.088530 40.898384 22.734421 -0.000001 -0.000000 -0.000001 -17.947312 14.755054 -51.486082 8.868910 8.666918 -84.812447 4.537791 8.851089 -59.152594 0.000001 0.000003 -0.000000 -9.042936 10.045753 -60.766117 8.524221 9.508789 -66.893807 6.575026 9.896225 -70.384246 0.000000 -0.000001 0.000005 -2.346201 4.689372 -62.655067 8.754245 9.897020 -87.051335 1.994928 4.928643 -37.483542 0.000000 -0.000001 0.000008 6.881580 2.840449 -61.140513 8.247838 7.639994 -89.898301 2.146516 8.173775 -41.827003 -0.000003 0.000005 0.000000 7.167531 17.295043 26.521666 -13.413136 -1.729134 16.426096 -18.111910 21.513610 5.222958 3.609224 -9.080845 -14.856406 -2.345493 -6.101515 10.731465 2.364383 -23.807413 -8.771402 -5.015723 13.990059 5.863258 0.000000 -0.000001 -0.000000 -0.081625 0.525474 0.414105 -0.001203 -0.095090 4.763158 -0.002129 -2.011851 -3.138819 -0.000000 0.000002 0.000002 0.347510 -5.945261 2.264675 1.444964 -4.235794 23.733697 0.108010 1.665229 -1.732083 0.000002 0.000001 -0.000001 1.182856 -11.763998 3.830707 1.786910 -3.787249 26.547426 1.339008 -4.018145 19.168494 -0.000000 0.000002 -0.000005 2.130222 -19.172705 11.002679 3.371501 -2.128709 18.510127 6.370236 -5.031148 28.632710 0.000001 0.000002 0.000001 -85.002756 -27.021372 54.612833 66.456853 -21.462828 -11.902329 6.719815 3.890787 -24.577411 1.285494 0.184310 2.841036 -0.000000 0.000001 0.000000 -27.196039 10.173185 -46.772657 44.120153 20.385743 -1.707658 -40.575254 -14.241314 37.575350 2.961730 -1.191350 5.491838 0.000000 0.000001 0.000000 
2.903969 50.122482 -119.250381 39.056920 -56.646632 28.273785 20.649031 2.058626 -8.499674 7.170935 0.242365 1.121805 6.833540 -0.048304 0.085481 -16.548206 28.409672 -14.525649 -28.690585 21.871676 5.784684 -0.000000 0.000000 -0.000000 9.141910 -8.587233 -8.705960 -75.240141 1.145462 -25.848485 45.141417 -35.208751 38.751324 -2.672616 0.713609 6.339289 40.109985 -15.297105 -0.359991 5.639660 28.097559 11.338842 1.088532 40.898387 22.734423 0.000000 0.000001 0.000001 -17.947307 14.755056 -51.486079 8.868908 8.666921 -84.812453 4.537794 8.851087 -59.152594 0.000001 0.000004 0.000002 -9.042933 10.045753 -60.766117 8.524221 9.508791 -66.893807 6.575029 9.896226 -70.384239 0.000000 0.000003 0.000002 -2.346201 4.689374 -62.655074 8.754250 9.897019 -87.051321 1.994928 4.928641 -37.483542 -0.000000 0.000000 0.000004 6.881583 2.840449 -61.140513 8.247838 7.639993 -89.898301 2.146516 8.173773 -41.827006 -0.000001 0.000003 0.000001 7.173206 17.668856 25.427428 -12.653992 -2.794598 16.444177 -16.717207 23.138705 4.944598 3.504780 -9.280588 -14.575193 -2.345493 -6.101512 10.731463 2.364392 -23.807410 -8.771397 -5.015159 13.989120 5.862902 -0.000000 -0.000001 -0.000000 -0.081758 0.527473 -0.923119 -0.003420 -0.095031 3.428904 -0.002565 -2.015234 -4.478454 -0.000003 0.000000 0.000001 0.344280 -5.949735 0.927499 1.444125 -4.235774 22.397237 0.113342 1.663815 -3.068440 0.000001 0.000002 -0.000008 1.182690 -11.763539 2.494083 1.786204 -3.786439 25.210618 1.335499 -4.018545 17.831722 0.000000 -0.000001 -0.000002 2.130088 -19.172799 9.666081 3.371336 -2.129087 17.173245 6.369923 -5.031436 27.296241 0.000002 -0.000004 0.000005 -80.911671 -26.577125 57.989631 59.791312 -21.325645 -11.630297 11.517481 3.604002 -31.126261 1.285464 0.184272 2.841058 -0.000000 -0.000001 -0.000000 -30.087164 11.771674 -48.931902 50.280742 26.154604 -0.515341 -45.890798 -16.892958 37.691146 4.468768 -1.089589 4.071622 0.000000 0.000001 -0.000000 
2.027544 49.503517 -123.019791 38.710821 -56.917496 28.977013 20.717962 1.365283 -7.663456 7.165988 -0.063285 0.529599 6.854979 -0.493560 -0.368999 -15.905643 28.695961 -14.764484 -28.417311 22.276172 5.056800 -0.000000 0.000000 -0.000000 9.219262 -8.111405 -9.535581 -75.780928 3.059649 -25.494502 47.120058 -36.644484 41.893331 -2.656557 0.874271 5.528172 40.109982 -15.297109 -0.359990 5.639656 28.097558 11.338843 1.088531 40.898387 22.734416 0.000004 0.000001 0.000001 -17.947309 14.755060 -51.486075 8.868912 8.666925 -84.812440 4.537788 8.851094 -59.152594 0.000002 0.000000 -0.000002 -9.042933 10.045752 -60.766110 8.524221 9.508791 -66.893800 6.575030 9.896225 -70.384239 -0.000000 -0.000000 0.000005 -2.346199 4.689374 -62.655067 8.754247 9.897022 -87.051328 1.994927 4.928641 -37.483542 -0.000001 -0.000000 0.000004 6.881583 2.840443 -61.140507 8.247832 7.639994 -89.898301 2.146521 8.173769 -41.827006 -0.000002 0.000001 -0.000001 7.401981 18.621657 24.520295 -12.353803 -2.629320 16.183184 -16.312805 23.140865 4.842488 3.229586 -8.537546 -14.376305 -2.345491 -6.101516 10.731464 2.364382 -23.807412 -8.771398 -5.016538 13.991575 5.863895 -0.000000 0.000001 0.000002 -0.082367 0.529347 -2.101318 -0.005777 -0.094970 2.245409 -0.003104 -2.018382 -5.660188 -0.000003 0.000001 -0.000001 0.341971 -5.955716 -0.253123 1.441745 -4.231530 21.216736 0.118620 1.663657 -4.249181 -0.000004 0.000002 -0.000001 1.182568 -11.763083 1.313740 1.790037 -3.787398 24.030453 1.329842 -4.020695 16.650775 -0.000004 0.000001 -0.000003 2.129978 -19.172872 8.485628 3.371161 -2.129476 15.992929 6.369547 -5.031312 26.115624 -0.000003 0.000000 -0.000003 -76.859484 -26.017652 59.767966 53.597792 -19.846481 -10.383675 15.121409 2.835993 -36.634280 1.285479 0.184295 2.841039 -0.000000 0.000002 -0.000000 -34.007546 14.453995 -47.660326 58.795792 28.313098 0.076567 -49.645831 -15.011629 33.177880 4.194791 -1.121376 3.475586 0.000000 0.000002 -0.000000 
1.153946 49.854111 -126.909470 38.556882 -56.842665 29.421713 20.556574 0.705200 -6.564069 7.336964 -0.375078 -0.017364 7.049894 -0.891843 -0.786897 -15.432836 28.893357 -14.967714 -28.294072 22.579366 4.318504 -0.000000 0.000000 -0.000000 9.376908 -7.604671 -10.212877 -76.345792 4.347332 -25.692487 48.475963 -37.491489 44.026242 -2.618842 0.629685 5.539137 40.109982 -15.297105 -0.359991 5.639658 28.097554 11.338840 1.088525 40.898387 22.734421 0.000004 0.000005 0.000001 -17.947309 14.755058 -51.486075 8.868905 8.666925 -84.812447 4.537790 8.851089 -59.152594 -0.000001 0.000001 -0.000004 -9.042932 10.045752 -60.766117 8.524221 9.508790 -66.893807 6.575030 9.896229 -70.384239 0.000000 0.000001 0.000003 -2.346200 4.689373 -62.655074 8.754246 9.897022 -87.051321 1.994929 4.928641 -37.483542 -0.000000 0.000000 0.000001 6.881583 2.840448 -61.140513 8.247838 7.639992 -89.898301 2.146515 8.173774 -41.827006 -0.000000 -0.000001 0.000001 7.847812 19.767722 23.641697 -12.579364 -1.374726 16.208758 -16.503503 21.623628 4.652523 2.848386 -7.891558 -14.157186 -2.345489 -6.101516 10.731466 2.364388 -23.807412 -8.771402 -5.002691 13.967457 5.854077 -0.000002 -0.000001 0.000001 -0.080571 0.531335 -3.060478 -0.005167 -0.094740 1.290636 -0.003782 -2.022227 -6.617272 -0.000001 0.000002 -0.000001 0.340354 -5.961848 -1.210710 1.440394 -4.229570 20.259029 0.123231 1.663722 -5.206535 -0.000001 0.000002 -0.000008 1.182112 -11.762642 0.356173 1.794589 -3.789377 23.073306 1.325756 -4.024198 15.693078 -0.000000 0.000002 -0.000005 2.129841 -19.172886 7.528061 3.369403 -2.129767 15.035543 6.369313 -5.031450 25.158220 -0.000000 0.000002 0.000001 -73.471498 -24.365160 60.240800 46.553774 -17.645037 -8.214044 18.786048 1.597654 -40.473454 1.285462 0.184277 2.841030 -0.000000 -0.000004 0.000000 -37.460500 16.551020 -45.176101 65.312755 28.681573 1.393121 -51.920837 -12.603109 29.049922 3.368213 -1.176736 1.691862 0.000000 -0.000001 -0.000000 
0.371363 51.207901 -131.238831 38.429745 -56.515328 29.615813 20.280975 -0.002479 -5.239760 7.605650 -0.691467 -0.546151 7.341717 -1.266498 -1.191157 -15.063415 29.042716 -15.142784 -28.241519 22.825901 3.570984 -0.000001 0.000000 -0.000000 9.461018 -7.477859 -10.668927 -77.363142 3.842370 -25.575008 47.283074 -36.225599 42.086318 -2.584687 -0.211277 6.377930 40.109979 -15.297102 -0.359990 5.639659 28.097554 11.338838 1.088530 40.898391 22.734418 -0.000003 -0.000001 -0.000001 -17.947311 14.755056 -51.486079 8.868908 8.666921 -84.812453 4.537788 8.851093 -59.152594 -0.000001 0.000000 -0.000002 -9.042933 10.045753 -60.766117 8.524223 9.508789 -66.893800 6.575029 9.896226 -70.384246 -0.000000 -0.000001 0.000003 -2.346199 4.689373 -62.655067 8.754245 9.897022 -87.051328 1.994927 4.928641 -37.483542 -0.000001 0.000000 0.000008 6.881585 2.840449 -61.140513 8.247838 7.639997 -89.898301 2.146516 8.173775 -41.827003 -0.000003 0.000005 0.000000 8.420831 20.689058 22.670661 -13.248946 0.663587 16.646447 -16.937826 19.293551 4.371575 2.405958 -7.128405 -13.865194 -2.345489 -6.101515 10.731468 2.364391 -23.807412 -8.771400 -5.013801 13.986651 5.861825 0.000003 0.000002 0.000001 -0.077796 0.532374 -3.726603 -0.003109 -0.094519 0.618305 -0.004335 -2.024925 -7.283009 -0.000000 -0.000001 -0.000001 0.339402 -5.966390 -1.878714 1.440419 -4.225298 19.591054 0.126649 1.663987 -5.874917 -0.000001 0.000000 -0.000004 1.183754 -11.762341 -0.311288 1.798781 -3.791090 22.405293 1.323170 -4.027406 15.024873 0.000000 -0.000001 -0.000005 2.129736 -19.172621 6.860085 3.366890 -2.130017 14.367146 6.369234 -5.031736 24.490164 -0.000003 0.000001 -0.000003 -70.719553 -22.162813 60.075380 40.463560 -15.253797 -5.994506 18.046060 1.672984 -40.945464 1.285482 0.184291 2.841030 0.000000 0.000001 0.000000 -40.871647 18.389820 -41.240358 70.317412 25.893959 2.620873 -52.281181 -9.714481 26.817496 2.368409 -1.242408 -0.461018 -0.000000 0.000000 -0.000000 
-0.468885 53.512543 -136.418350 38.595316 -55.436773 30.006858 19.953687 -0.598003 -4.630724 7.768014 -0.948275 -0.686016 7.535103 -1.514822 -1.212413 -14.430038 29.240596 -15.909083 -28.625990 22.814850 3.141704 -0.000001 0.000000 0.000000 9.543746 -7.426261 -10.983167 -78.326376 2.223590 -26.203660 45.344998 -34.046410 38.769923 -2.506974 -1.294970 7.770043 40.109979 -15.297107 -0.359990 5.639658 28.097558 11.338840 1.088524 40.898384 22.734418 0.000003 0.000002 -0.000002 -17.947311 14.755054 -51.486075 8.868908 8.666918 -84.812453 4.537792 8.851092 -59.152594 -0.000002 0.000001 0.000001 -9.042933 10.045752 -60.766117 8.524220 9.508788 -66.893807 6.575028 9.896225 -70.384246 -0.000000 0.000001 0.000003 -2.346201 4.689371 -62.655067 8.754250 9.897019 -87.051328 1.994929 4.928640 -37.483549 0.000002 -0.000002 0.000009 6.881583 2.840445 -61.140507 8.247839 7.639993 -89.898301 2.146516 8.173777 -41.827003 -0.000002 0.000003 0.000002 9.047763 20.981146 21.676879 -14.257450 2.492596 17.514330 -17.783834 17.654055 4.431197 1.937915 -6.146631 -13.648850 -2.345492 -6.101515 10.731466 2.364382 -23.807412 -8.771400 -5.015154 13.989204 5.862945 0.000002 0.000002 0.000001 -0.076307 0.533221 -4.046739 -0.001527 -0.093887 0.324322 -0.004531 -2.025702 -7.603067 -0.000002 0.000002 -0.000001 0.339053 -5.967640 -2.191781 1.439660 -4.222674 19.278305 0.128394 1.665140 -6.181043 0.000001 -0.000002 -0.000001 1.185500 -11.761853 -0.623059 1.801529 -3.791547 22.093905 1.321938 -4.028380 14.713027 -0.000001 0.000000 -0.000002 2.129208 -19.172729 6.547921 3.365600 -2.129704 14.055418 6.368598 -5.029703 24.178047 -0.000003 0.000001 -0.000001 -68.881556 -20.160044 58.691925 35.974688 -12.513317 -4.316293 12.799566 3.553566 -36.432448 1.285505 0.184281 2.841011 0.000002 -0.000000 0.000000 -45.647264 18.664771 -34.697149 75.159005 21.815117 2.439806 -52.167858 -7.536331 23.751653 1.881873 -1.273672 -1.506720 -0.000000 0.000001 -0.000000 
